<?xml version="1.0" standalone="no"?>
<!DOCTYPE svg PUBLIC "-//W3C//DTD SVG 20010904//EN"
 "http://www.w3.org/TR/2001/REC-SVG-20010904/DTD/svg10.dtd">
<svg version="1.0" xmlns="http://www.w3.org/2000/svg"
 width="500.000000pt" height="500.000000pt" viewBox="0 0 500.000000 500.000000"
 preserveAspectRatio="xMidYMid meet">

<g transform="translate(0.000000,500.000000) scale(0.100000,-0.100000)"
fill="#000000" stroke="none">
<path d="M1910 4215 c-17 -21 -11 -46 86 -375 75 -254 83 -286 68 -295 -241
-148 -405 -325 -526 -566 -51 -102 -84 -191 -116 -314 l-27 -100 -227 -3 -228
-2 -128 129 c-71 71 -138 134 -150 140 -21 11 -52 5 -64 -13 -22 -32 -4 -59
142 -205 l151 -151 245 0 245 0 -7 -37 c-10 -50 -10 -375 0 -436 l7 -47 -243
0 -243 0 -153 -153 c-99 -99 -152 -160 -152 -173 0 -25 29 -54 55 -54 10 0 81
62 160 140 l141 140 226 0 225 0 13 -47 c32 -125 80 -258 131 -360 l56 -113
-226 0 -226 0 -147 -148 c-141 -142 -152 -156 -149 -195 1 -22 43 -42 65 -30
9 5 76 68 150 141 l134 132 232 0 233 0 45 -52 c175 -201 349 -315 567 -374
119 -32 309 -34 430 -4 204 49 333 126 513 307 l122 123 230 0 230 0 135 -134
c74 -74 144 -138 155 -141 32 -10 60 12 60 47 0 26 -21 52 -147 179 l-148 149
-228 0 c-126 0 -227 3 -225 8 2 4 23 45 47 92 55 108 87 189 121 315 l27 100
228 3 229 2 141 -140 c88 -87 149 -140 162 -140 25 0 53 30 53 56 0 12 -61 80
-153 172 l-152 152 -240 0 -240 0 0 260 0 260 241 0 241 0 152 152 c124 125
151 157 149 178 -4 32 -44 53 -72 38 -12 -6 -79 -69 -151 -140 l-129 -128
-226 2 -225 3 -13 45 c-45 157 -91 285 -132 364 -122 240 -267 407 -463 530
-42 27 -77 53 -77 56 0 4 41 146 91 315 99 337 101 355 40 355 -16 0 -34 -6
-40 -14 -7 -8 -52 -148 -100 -311 -49 -163 -91 -298 -93 -301 -3 -2 -45 6 -94
18 -128 32 -333 31 -457 -1 -48 -13 -89 -22 -91 -20 -1 2 -15 49 -30 104 -16
55 -34 118 -42 140 -7 22 -34 112 -60 200 -26 88 -51 166 -57 173 -13 17 -62
15 -77 -3z m705 -680 c120 -13 304 -92 410 -178 79 -64 177 -166 229 -240 81
-114 213 -393 195 -412 -3 -3 -434 -4 -957 -3 l-950 3 24 69 c66 191 165 348
308 491 123 122 203 174 357 232 88 33 218 54 289 47 19 -1 62 -6 95 -9z
m-165 -1800 c0 -704 -2 -857 -13 -861 -8 -3 -49 2 -92 11 -410 85 -733 463
-846 990 -30 142 -38 430 -15 575 9 58 19 113 22 123 5 16 36 17 475 17 l469
0 0 -855z m1045 818 c4 -21 11 -60 17 -88 20 -98 22 -351 4 -475 -30 -206 -69
-335 -152 -504 -88 -179 -217 -337 -364 -447 -106 -79 -267 -145 -402 -164
l-48 -7 0 861 0 861 470 0 469 0 6 -37z"/>
</g>
</svg>
